<svg xmlns="http://www.w3.org/2000/svg" viewBox="0 0 512 512">
  <defs>
    <linearGradient id="g" x1="0" y1="0" x2="1" y2="1">
      <stop offset="0" stop-color="#2A8C78"/><stop offset="1" stop-color="#15584A"/>
    </linearGradient>
  </defs>
  <rect width="512" height="512" rx="116" fill="url(#g)"/>
  <circle cx="392" cy="132" r="44" fill="#F2B544"/>
  <path d="M60 372 Q256 332 452 372" stroke="#0E3F34" stroke-width="18" fill="none" stroke-linecap="round" opacity=".55"/>
  <g>
    <path d="M86 236 Q86 184 138 184 H214 V214 H404 Q428 214 428 238 V330 Q428 346 412 346 H102 Q86 346 86 330 Z" fill="#FFFFFF"/>
    <path d="M106 246 H150 Q164 246 164 260 V306 H106 Z" fill="#15584A"/>
    <rect x="238" y="240" width="64" height="48" rx="8" fill="#15584A"/>
    <rect x="322" y="240" width="64" height="48" rx="8" fill="#15584A"/>
    <rect x="86" y="314" width="342" height="12" fill="#D9D3C4"/>
    <circle cx="164" cy="348" r="34" fill="#1E2A26"/><circle cx="164" cy="348" r="14" fill="#F3F0E8"/>
    <circle cx="352" cy="348" r="34" fill="#1E2A26"/><circle cx="352" cy="348" r="14" fill="#F3F0E8"/>
  </g>
</svg>
